<svg xmlns="http://www.w3.org/2000/svg" viewBox="0 0 120 120" role="img" aria-label="Left duelist avatar">
  <defs>
    <linearGradient id="bgL" x1="0" y1="0" x2="1" y2="1">
      <stop offset="0%" stop-color="#f6e8c7"/>
      <stop offset="100%" stop-color="#cfb17a"/>
    </linearGradient>
    <linearGradient id="robeL" x1="0" y1="0" x2="0" y2="1">
      <stop offset="0%" stop-color="#7b2e20"/>
      <stop offset="100%" stop-color="#4e140e"/>
    </linearGradient>
  </defs>
  <rect width="120" height="120" rx="60" fill="url(#bgL)"/>
  <circle cx="60" cy="42" r="22" fill="#f0d7b3"/>
  <path d="M28 106c5-21 16-34 32-34s27 13 32 34" fill="url(#robeL)"/>
  <path d="M35 35c5-15 18-24 25-24 10 0 19 6 26 19-9-4-19-2-26 2-8 4-16 5-25 3z" fill="#2e1c14"/>
  <path d="M61 64l8 8-12 20-6-4z" fill="#c9a86b"/>
  <circle cx="52" cy="44" r="2" fill="#3f2a1f"/>
  <circle cx="67" cy="44" r="2" fill="#3f2a1f"/>
  <path d="M52 54c5 4 10 4 15 0" stroke="#8a5f42" stroke-width="2" fill="none" stroke-linecap="round"/>
</svg>
