<svg xmlns="http://www.w3.org/2000/svg" viewBox="0 0 120 120" role="img" aria-label="Right duelist avatar">
  <defs>
    <linearGradient id="bgR" x1="0" y1="0" x2="1" y2="1">
      <stop offset="0%" stop-color="#efe7cf"/>
      <stop offset="100%" stop-color="#b89e6f"/>
    </linearGradient>
    <linearGradient id="robeR" x1="0" y1="0" x2="0" y2="1">
      <stop offset="0%" stop-color="#2f4f2f"/>
      <stop offset="100%" stop-color="#1f311f"/>
    </linearGradient>
  </defs>
  <rect width="120" height="120" rx="60" fill="url(#bgR)"/>
  <circle cx="60" cy="42" r="22" fill="#ebd3ad"/>
  <path d="M27 106c6-20 16-33 33-33 16 0 26 13 32 33" fill="url(#robeR)"/>
  <path d="M31 34c6-16 16-23 29-23 13 0 22 7 29 23-8-5-15-5-23-2-11 4-20 6-35 2z" fill="#1f251f"/>
  <path d="M74 68l-8 7 13 18 6-4z" fill="#b9a36f"/>
  <circle cx="53" cy="44" r="2" fill="#3f2a1f"/>
  <circle cx="68" cy="44" r="2" fill="#3f2a1f"/>
  <path d="M53 55c5 3 10 3 15 0" stroke="#8a5f42" stroke-width="2" fill="none" stroke-linecap="round"/>
</svg>
